<svg width="23" height="28" viewBox="0 0 23 28" fill="none" xmlns="http://www.w3.org/2000/svg">
<path d="M11.6791 8.04505C10.5638 8.04505 8.83744 6.78754 7.01938 6.83299C4.62076 6.86329 2.42075 8.21171 1.18324 10.348C-1.30705 14.6356 0.541571 20.9686 2.97075 24.4533C4.16242 26.1502 5.56798 28.0592 7.43188 27.9986C9.21939 27.9228 9.89161 26.8471 12.0611 26.8471C14.2152 26.8471 14.8264 27.9986 16.7208 27.9531C18.6458 27.9228 19.868 26.226 21.0444 24.5139C22.4042 22.5443 22.9694 20.6353 23 20.5293C22.9542 20.5141 19.2569 19.1051 19.2111 14.8629C19.1805 11.3176 22.1292 9.62073 22.2667 9.54497C20.5861 7.1057 18.0041 6.83299 17.1028 6.77239C14.75 6.59058 12.7791 8.04505 11.6791 8.04505ZM15.6514 4.46947C16.6444 3.28771 17.3014 1.63628 17.118 0C15.6972 0.060603 13.9861 0.939346 12.9625 2.1211C12.0458 3.16651 11.2513 4.84824 11.4652 6.45422C13.0388 6.57543 14.6583 5.65123 15.6514 4.46947Z" fill="#5520BD"/>
</svg>
