<svg width="34" height="40" viewBox="0 0 34 40" fill="none" xmlns="http://www.w3.org/2000/svg">
<path d="M28.0951 21.1386C28.0758 17.8599 29.5614 15.3888 32.5612 13.5668C30.8834 11.163 28.3451 9.84096 24.999 9.58617C21.8309 9.33618 18.3647 11.4322 17.0955 11.4322C15.7542 11.4322 12.687 9.6727 10.2736 9.6727C5.29306 9.74962 0 13.6437 0 21.5665C0 23.9077 0.427868 26.3259 1.2836 28.8162C2.42779 32.0949 6.55263 40.1282 10.8553 39.9984C13.1053 39.9456 14.6965 38.4024 17.6243 38.4024C20.4656 38.4024 21.9366 39.9984 24.4462 39.9984C28.7873 39.9359 32.518 32.6333 33.6045 29.345C27.7826 26.5999 28.0951 21.3069 28.0951 21.1386V21.1386ZM23.0424 6.47571C25.4798 3.58159 25.2586 0.947079 25.1865 0C23.0328 0.124995 20.5425 1.46629 19.1243 3.11526C17.5618 4.88443 16.6436 7.07184 16.8407 9.53809C19.1675 9.71597 21.2924 8.5189 23.0424 6.47571V6.47571Z" fill="#111111"/>
</svg>
