<svg width="22" height="28" viewBox="0 0 22 28" fill="none" xmlns="http://www.w3.org/2000/svg">
<path d="M19.9465 24.0001C18.8398 25.6534 17.6665 27.2667 15.8798 27.2934C14.0931 27.3334 13.5198 26.2401 11.4931 26.2401C9.45313 26.2401 8.82646 27.2667 7.13313 27.3334C5.38646 27.4001 4.06646 25.5734 2.94646 23.9601C0.666464 20.6667 -1.0802 14.6001 1.26646 10.5201C2.42646 8.49342 4.50646 7.21342 6.7598 7.17342C8.46646 7.14675 10.0931 8.33342 11.1465 8.33342C12.1865 8.33342 14.1598 6.90675 16.2265 7.12008C17.0931 7.16008 19.5198 7.46675 21.0798 9.76008C20.9598 9.84008 18.1865 11.4667 18.2131 14.8401C18.2531 18.8667 21.7465 20.2134 21.7865 20.2267C21.7465 20.3201 21.2265 22.1467 19.9465 24.0001ZM12.3331 2.66675C13.3065 1.56008 14.9198 0.720081 16.2531 0.666748C16.4265 2.22675 15.7998 3.80008 14.8665 4.92008C13.9465 6.05341 12.4265 6.93341 10.9331 6.81342C10.7331 5.28008 11.4798 3.68008 12.3331 2.66675Z" fill="black"/>
</svg>
