<svg width="168" height="27" viewBox="0 0 168 27" fill="none" xmlns="http://www.w3.org/2000/svg">
<path fill-rule="evenodd" clip-rule="evenodd" d="M12.5249 23.1818L6.78447 26.3356C6.00907 26.7616 5.05002 26.45 4.64237 25.6397C4.48004 25.3171 4.42403 24.9475 4.483 24.5882L5.57933 17.9084C5.66758 17.3707 5.49699 16.822 5.12315 16.4412L0.47901 11.7105C-0.1483 11.0715 -0.161136 10.0221 0.45034 9.36654C0.693834 9.1055 1.01288 8.93562 1.3581 8.8832L7.77613 7.90863C8.29277 7.83018 8.73938 7.49109 8.97043 7.00186L11.8407 0.924362C12.2284 0.103439 13.1795 -0.233612 13.965 0.171538C14.2779 0.332871 14.5311 0.597466 14.6854 0.924362L17.5557 7.00186C17.7867 7.49109 18.2333 7.83018 18.75 7.90863L25.168 8.8832C26.0349 9.01484 26.6356 9.85597 26.5096 10.7619C26.4595 11.1227 26.2969 11.4561 26.0471 11.7105L21.403 16.4412C21.0291 16.822 20.8585 17.3707 20.9468 17.9084L22.0431 24.5882C22.1912 25.4905 21.6113 26.3474 20.7479 26.5021C20.4041 26.5637 20.0504 26.5052 19.7416 26.3356L14.0012 23.1818C13.5391 22.9279 12.987 22.9279 12.5249 23.1818Z" fill="#4C1BB8"/>
<path fill-rule="evenodd" clip-rule="evenodd" d="M47.8933 23.1818L42.1529 26.3356C41.3775 26.7616 40.4184 26.45 40.0108 25.6397C39.8485 25.3171 39.7924 24.9475 39.8514 24.5882L40.9477 17.9084C41.036 17.3707 40.8654 16.822 40.4916 16.4412L35.8474 11.7105C35.2201 11.0715 35.2073 10.0221 35.8187 9.36654C36.0622 9.1055 36.3813 8.93562 36.7265 8.8832L43.1445 7.90863C43.6612 7.83018 44.1078 7.49109 44.3388 7.00186L47.2091 0.924362C47.5968 0.103439 48.5479 -0.233612 49.3335 0.171538C49.6463 0.332871 49.8995 0.597466 50.0539 0.924362L52.9241 7.00186C53.1551 7.49109 53.6017 7.83018 54.1184 7.90863L60.5364 8.8832C61.4033 9.01484 62.004 9.85597 61.878 10.7619C61.8279 11.1227 61.6653 11.4561 61.4155 11.7105L56.7714 16.4412C56.3975 16.822 56.2269 17.3707 56.3152 17.9084L57.4115 24.5882C57.5596 25.4905 56.9797 26.3474 56.1163 26.5021C55.7725 26.5637 55.4188 26.5052 55.11 26.3356L49.3696 23.1818C48.9075 22.9279 48.3554 22.9279 47.8933 23.1818Z" fill="#4C1BB8"/>
<path fill-rule="evenodd" clip-rule="evenodd" d="M83.2618 23.1818L77.5213 26.3356C76.7459 26.7616 75.7868 26.45 75.3792 25.6397C75.2169 25.3171 75.1608 24.9475 75.2198 24.5882L76.3161 17.9084C76.4044 17.3707 76.2338 16.822 75.86 16.4412L71.2158 11.7105C70.5885 11.0715 70.5757 10.0221 71.1872 9.36654C71.4306 9.1055 71.7497 8.93562 72.0949 8.8832L78.5129 7.90863C79.0296 7.83018 79.4762 7.49109 79.7072 7.00186L82.5775 0.924362C82.9652 0.103439 83.9163 -0.233612 84.7019 0.171538C85.0147 0.332871 85.2679 0.597466 85.4223 0.924362L88.2925 7.00186C88.5235 7.49109 88.9702 7.83018 89.4868 7.90863L95.9048 8.8832C96.7718 9.01484 97.3724 9.85597 97.2464 10.7619C97.1963 11.1227 97.0337 11.4561 96.7839 11.7105L92.1398 16.4412C91.7659 16.822 91.5953 17.3707 91.6836 17.9084L92.7799 24.5882C92.928 25.4905 92.3481 26.3474 91.4847 26.5021C91.1409 26.5637 90.7872 26.5052 90.4785 26.3356L84.738 23.1818C84.2759 22.9279 83.7238 22.9279 83.2618 23.1818Z" fill="#4C1BB8"/>
<path fill-rule="evenodd" clip-rule="evenodd" d="M118.63 23.1818L112.89 26.3356C112.114 26.7616 111.155 26.45 110.748 25.6397C110.585 25.3171 110.529 24.9475 110.588 24.5882L111.685 17.9084C111.773 17.3707 111.602 16.822 111.228 16.4412L106.584 11.7105C105.957 11.0715 105.944 10.0221 106.556 9.36654C106.799 9.1055 107.118 8.93562 107.463 8.8832L113.881 7.90863C114.398 7.83018 114.845 7.49109 115.076 7.00186L117.946 0.924362C118.334 0.103439 119.285 -0.233612 120.07 0.171538C120.383 0.332871 120.636 0.597466 120.791 0.924362L123.661 7.00186C123.892 7.49109 124.339 7.83018 124.855 7.90863L131.273 8.8832C132.14 9.01484 132.741 9.85597 132.615 10.7619C132.565 11.1227 132.402 11.4561 132.152 11.7105L127.508 16.4412C127.134 16.822 126.964 17.3707 127.052 17.9084L128.148 24.5882C128.296 25.4905 127.717 26.3474 126.853 26.5021C126.509 26.5637 126.156 26.5052 125.847 26.3356L120.106 23.1818C119.644 22.9279 119.092 22.9279 118.63 23.1818Z" fill="#4C1BB8"/>
<path fill-rule="evenodd" clip-rule="evenodd" d="M153.999 23.1818L148.258 26.3356C147.483 26.7616 146.524 26.45 146.116 25.6397C145.954 25.3171 145.898 24.9475 145.957 24.5882L147.053 17.9084C147.141 17.3707 146.971 16.822 146.597 16.4412L141.953 11.7105C141.325 11.0715 141.312 10.0221 141.924 9.36654C142.167 9.1055 142.487 8.93562 142.832 8.8832L149.25 7.90863C149.766 7.83018 150.213 7.49109 150.444 7.00186L153.314 0.924362C153.702 0.103439 154.653 -0.233612 155.439 0.171538C155.751 0.332871 156.005 0.597466 156.159 0.924362L159.029 7.00186C159.26 7.49109 159.707 7.83018 160.224 7.90863L166.642 8.8832C167.509 9.01484 168.109 9.85597 167.983 10.7619C167.933 11.1227 167.771 11.4561 167.521 11.7105L162.877 16.4412C162.503 16.822 162.332 17.3707 162.42 17.9084L163.517 24.5882C163.665 25.4905 163.085 26.3474 162.222 26.5021C161.878 26.5637 161.524 26.5052 161.215 26.3356L155.475 23.1818C155.013 22.9279 154.461 22.9279 153.999 23.1818Z" fill="#4C1BB8"/>
</svg>
