<svg width="24" height="25" viewBox="0 0 24 25" fill="none" xmlns="http://www.w3.org/2000/svg">
<g clip-path="url(#clip0_305_5372)">
<path d="M8.25003 15.5264C10.9424 15.5264 13.125 13.3438 13.125 10.6514C13.125 7.95898 10.9424 5.77637 8.25003 5.77637C5.55764 5.77637 3.37503 7.95898 3.37503 10.6514C3.37503 13.3438 5.55764 15.5264 8.25003 15.5264Z" stroke="white" stroke-width="2" stroke-miterlimit="10"/>
<path d="M14.5699 5.95795C15.2404 5.76903 15.9437 5.72599 16.6322 5.83174C17.3208 5.93748 17.9787 6.18955 18.5616 6.57096C19.1445 6.95238 19.6389 7.45428 20.0116 8.04287C20.3842 8.63146 20.6264 9.29307 20.7218 9.98313C20.8171 10.6732 20.7636 11.3757 20.5646 12.0433C20.3656 12.7109 20.0259 13.3281 19.5683 13.8534C19.1107 14.3786 18.5459 14.7997 17.9119 15.0883C17.2778 15.3769 16.5893 15.5263 15.8927 15.5264" stroke="white" stroke-width="2" stroke-linecap="round" stroke-linejoin="round"/>
<path d="M1.49963 19.0323C2.26101 17.9493 3.27178 17.0654 4.44662 16.4552C5.62145 15.845 6.92586 15.5264 8.24971 15.5264C9.57356 15.5263 10.878 15.8448 12.0529 16.4549C13.2278 17.065 14.2386 17.9489 15.0001 19.0318" stroke="white" stroke-width="2" stroke-linecap="round" stroke-linejoin="round"/>
<path d="M15.8927 15.5264C17.2167 15.5254 18.5214 15.8435 19.6964 16.4537C20.8713 17.0639 21.882 17.9482 22.6427 19.0318" stroke="white" stroke-width="2" stroke-linecap="round" stroke-linejoin="round"/>
</g>
<defs>
<clipPath id="clip0_305_5372">
<rect width="24" height="24" fill="white" transform="translate(0 0.526367)"/>
</clipPath>
</defs>
</svg>
