<svg width="58" height="40" viewBox="0 0 58 40" fill="none" xmlns="http://www.w3.org/2000/svg">
<path d="M16.1906 33.1251C16.5139 33.1251 16.817 33.1688 17.1001 33.2557C17.3829 33.3429 17.637 33.4792 17.8621 33.6649L17.4638 34.2914C17.3078 34.1581 17.113 34.0537 16.8792 33.9781C16.6453 33.9029 16.4158 33.8651 16.1906 33.8651C16.0231 33.8651 15.8584 33.8912 15.6969 33.9435C15.5352 33.9957 15.3908 34.0769 15.2638 34.187C15.1368 34.2973 15.0343 34.4394 14.9563 34.6136C14.8785 34.7876 14.8395 34.9995 14.8395 35.2489V37.1202C14.8395 37.3638 14.8797 37.5743 14.9607 37.7513C15.0414 37.9283 15.1455 38.0719 15.2726 38.1821C15.3995 38.2924 15.5424 38.3734 15.7012 38.4256C15.86 38.4779 16.0174 38.504 16.1734 38.504C16.3984 38.504 16.6279 38.4723 16.8619 38.4084C17.0957 38.3446 17.3049 38.2373 17.4897 38.0863L17.8708 38.7042C17.6859 38.8552 17.4464 38.9828 17.152 39.0873C16.8574 39.1916 16.537 39.2439 16.1906 39.2439C15.9018 39.2439 15.6262 39.1988 15.3635 39.1089C15.1006 39.0191 14.8703 38.8901 14.6725 38.7217C14.4745 38.5535 14.3172 38.3474 14.2004 38.1037C14.0836 37.86 14.0254 37.5844 14.0254 37.2769V35.0835C14.0254 34.782 14.0852 34.5107 14.2049 34.2698C14.3244 34.029 14.4831 33.823 14.6812 33.6518C14.8789 33.4807 15.108 33.3501 15.3677 33.2601C15.6276 33.1702 15.9018 33.1251 16.1906 33.1251ZM57.4164 37.2248C57.4164 37.5323 57.3602 37.8109 57.2466 38.0603C57.1342 38.3098 56.9783 38.5215 56.7787 38.6956C56.5791 38.8696 56.3451 39.0046 56.0756 39.1004C55.8061 39.196 55.5159 39.2439 55.2039 39.2439C54.8794 39.2439 54.5812 39.196 54.3093 39.1004C54.0375 39.0046 53.8047 38.8696 53.6109 38.6956C53.417 38.5215 53.2668 38.3098 53.1601 38.0603C53.0523 37.8109 52.9995 37.5323 52.9995 37.2248V35.1532C52.9995 34.8516 53.0523 34.5759 53.1601 34.3264C53.2668 34.077 53.417 33.8637 53.6109 33.6866C53.8047 33.5096 54.0375 33.3719 54.3093 33.2731C54.5812 33.1746 54.8794 33.1251 55.2039 33.1251C55.5216 33.1251 55.8164 33.1746 56.0882 33.2731C56.3612 33.3719 56.5952 33.5096 56.7913 33.6866C56.9886 33.8637 57.1411 34.077 57.2512 34.3264C57.3613 34.5759 57.4164 34.8516 57.4164 35.1532V37.2248ZM40.116 38.1125C39.9979 38.3561 39.8362 38.5621 39.6343 38.7304C39.4313 38.8988 39.1973 39.0264 38.9313 39.1135C38.6652 39.2004 38.3819 39.2439 38.0814 39.2439C37.7797 39.2439 37.4953 39.2004 37.2258 39.1135C36.9574 39.0264 36.7234 38.8988 36.5238 38.7304C36.3243 38.5621 36.166 38.3561 36.0502 38.1125C35.9343 37.8688 35.877 37.5932 35.877 37.2856V33.1862H36.6913V37.1376C36.6913 37.3814 36.728 37.5903 36.8026 37.7643C36.8783 37.9383 36.9792 38.0807 37.1053 38.1909C37.2315 38.301 37.3806 38.3823 37.5504 38.4345C37.7201 38.4867 37.8967 38.5129 38.0814 38.5129C38.2592 38.5129 38.4335 38.4867 38.6032 38.4345C38.773 38.3823 38.9232 38.301 39.0528 38.1909C39.1813 38.0807 39.2857 37.9383 39.3637 37.7643C39.4405 37.5903 39.4795 37.3814 39.4795 37.1376V33.1862H40.2938V37.2856C40.2938 37.5932 40.2342 37.8688 40.116 38.1125ZM27.6925 37.5205C27.6925 37.7875 27.642 38.027 27.5411 38.2386C27.4401 38.4504 27.2956 38.6303 27.1075 38.7782C26.9194 38.9262 26.6958 39.0394 26.4366 39.1177C26.1762 39.196 25.8883 39.2352 25.5706 39.2352C25.16 39.2352 24.7747 39.1774 24.4145 39.0612C24.0532 38.9451 23.7046 38.7566 23.3708 38.4954L23.8204 37.921C24.0865 38.1067 24.3675 38.2517 24.6646 38.3561C24.9628 38.4606 25.2667 38.5128 25.5787 38.5128C25.9835 38.5128 26.3001 38.4258 26.5318 38.2517C26.7623 38.0777 26.8781 37.8339 26.8781 37.5205C26.8781 37.3233 26.8334 37.1624 26.7439 37.0376C26.6545 36.9129 26.5386 36.8127 26.3976 36.7372C26.2554 36.662 26.0994 36.6039 25.9296 36.5631C25.7587 36.5226 25.5936 36.4848 25.4319 36.4501C25.1944 36.4038 24.9662 36.3443 24.7471 36.2716C24.5281 36.1991 24.3342 36.099 24.1668 35.9713C23.9993 35.8437 23.864 35.6856 23.7596 35.4969C23.6564 35.3086 23.6036 35.0749 23.6036 34.7964C23.6036 34.547 23.6484 34.3162 23.739 34.1044C23.8284 33.8925 23.9569 33.7114 24.1244 33.5605C24.2918 33.4096 24.4937 33.2907 24.7299 33.2035C24.9662 33.1166 25.2357 33.0729 25.5351 33.0729C25.8826 33.0729 26.2198 33.1049 26.549 33.1688C26.8781 33.2327 27.1924 33.3574 27.4929 33.543L27.1201 34.2219C26.8667 34.0711 26.6017 33.9638 26.3276 33.8998C26.0535 33.8361 25.7874 33.8041 25.5271 33.8041C25.3711 33.8041 25.2243 33.8247 25.0855 33.8651C24.9467 33.9057 24.8251 33.9681 24.7219 34.0522C24.6175 34.1364 24.535 34.2423 24.4742 34.3698C24.4145 34.4975 24.3836 34.6456 24.3836 34.8138C24.3836 34.9822 24.4271 35.1183 24.5132 35.2227C24.6003 35.3273 24.7093 35.413 24.8423 35.4796C24.9754 35.5463 25.1199 35.6001 25.2759 35.6405C25.4319 35.6813 25.5787 35.716 25.7174 35.7451C25.9652 35.8032 26.2083 35.8684 26.4446 35.9409C26.682 36.0135 26.8919 36.1136 27.0777 36.2412C27.2624 36.3689 27.4103 36.5343 27.5239 36.7372C27.6363 36.9404 27.6925 37.2015 27.6925 37.5205ZM4.73224 39.183L4.26452 37.8339H1.89151L1.43251 39.183H0.600983L2.67968 33.1861H3.48506L5.57236 39.183H4.73224ZM10.1018 33.1861C10.4021 33.1861 10.659 33.2398 10.8727 33.3471C11.0862 33.4546 11.2625 33.5938 11.4011 33.7649C11.5396 33.9362 11.6406 34.1275 11.7041 34.3394C11.7676 34.5512 11.7994 34.7645 11.7994 34.9791C11.7994 35.1475 11.7762 35.3141 11.7301 35.4796C11.6838 35.6448 11.6146 35.8002 11.5223 35.9452C11.4299 36.0904 11.3187 36.2224 11.1889 36.3412C11.0589 36.4603 10.9102 36.5545 10.7427 36.624L11.8601 39.183H10.9766L9.96328 36.772H8.42169V39.183H7.62492V33.1861H10.1018ZM46.9632 37.2334C46.9632 37.5235 46.9093 37.7891 46.8027 38.0297C46.696 38.2706 46.5492 38.4766 46.3657 38.6476C46.1799 38.8189 45.9643 38.951 45.7154 39.0438C45.4676 39.1366 45.2015 39.183 44.9182 39.183H42.684V33.1861H44.9274C45.2107 33.1861 45.4757 33.2312 45.7245 33.321C45.9723 33.411 46.1891 33.5402 46.3737 33.7085C46.5584 33.8767 46.7029 34.0826 46.8061 34.3264C46.9105 34.57 46.9632 34.8427 46.9632 35.1445V37.2334ZM50.3834 33.1862H49.5863V39.183H50.3834V33.1862ZM32.1093 33.926V39.183H31.295V33.926H29.5711V33.1862H33.824V33.926H32.1093ZM56.6021 35.2489C56.6021 35.0052 56.5654 34.7964 56.4897 34.6222C56.4151 34.4482 56.3142 34.3046 56.188 34.1914C56.0607 34.0783 55.9128 33.9957 55.743 33.9435C55.5733 33.8913 55.3932 33.8651 55.2039 33.8651C55.0136 33.8651 54.8335 33.8913 54.6637 33.9435C54.494 33.9957 54.3472 34.0783 54.2233 34.1914C54.0994 34.3046 54.0008 34.4482 53.9251 34.6222C53.8506 34.7964 53.8139 35.0052 53.8139 35.2489V37.129C53.8139 37.3726 53.8506 37.5815 53.9251 37.7555C54.0008 37.9297 54.1006 38.0719 54.2279 38.1821C54.3541 38.2924 54.5032 38.3734 54.6729 38.4256C54.8427 38.478 55.0193 38.504 55.2039 38.504C55.3932 38.504 55.5721 38.478 55.7384 38.4256C55.9059 38.3734 56.0538 38.2924 56.1834 38.1821C56.313 38.0719 56.4151 37.9297 56.4897 37.7555C56.5654 37.5815 56.6021 37.3726 56.6021 37.129V35.2489ZM46.1489 35.2862C46.1489 35.0364 46.1076 34.8242 46.0273 34.6499C45.9459 34.4755 45.8392 34.3329 45.7073 34.2225C45.5743 34.112 45.4229 34.0335 45.252 33.987C45.0811 33.9405 44.9102 33.9173 44.737 33.9173H43.4811V38.4779H44.737C44.8988 38.4779 45.0639 38.4547 45.2348 38.4081C45.4045 38.3618 45.5571 38.2832 45.689 38.1729C45.822 38.0623 45.9321 37.9214 46.0182 37.7499C46.1053 37.5784 46.1489 37.3647 46.1489 37.1089V35.2862ZM3.0607 34.2828L2.62773 35.6755L2.15129 37.1028H4.01345L3.53702 35.6755L3.09533 34.2828H3.0607ZM11.0026 34.9791C11.0026 34.6542 10.9031 34.3959 10.7039 34.2044C10.5046 34.013 10.2492 33.9173 9.93736 33.9173H8.42169V36.0323H9.93736C10.2492 36.0323 10.5046 35.9395 10.7039 35.7538C10.9031 35.568 11.0026 35.3099 11.0026 34.9791Z" fill="black"/>
<path d="M21.8436 13.6553C21.8436 13.6553 20.8651 13.319 20.8537 13.319C15.6883 13.3538 6.23364 19.4069 1 29.5882C1 29.5882 2.18326 26.8632 1 29.5882C1 19.9172 5.1983 11.8463 12.7643 6.1759C12.7757 6.16431 12.7871 6.16431 12.7985 6.15271" fill="#5613D8" fill-opacity="0.5"/>
<path d="M28.8989 1C34.0301 1 38.8542 2.41471 42.9956 4.88466C48.6047 11.506 52.0066 20.1218 52.0066 29.5378H41.4483H31.5726C31.5726 24.5979 29.4905 20.145 26.1683 17.0489C23.2101 14.289 19.2849 12.6076 14.9728 12.6076C10.6153 12.6076 6.79243 14.0571 3.82291 16.8749C8.35115 7.33142 17.8058 1 28.8989 1Z" fill="#FFDEDE" fill-opacity="0.86"/>
<path d="M14.9956 12.6076C10.7063 12.6076 6.76968 14.1383 3.82291 16.8749C8.03258 7.81845 17.1346 1.47543 27.5336 1.03479C27.545 1.03479 27.5677 1.03479 27.5791 1.03479C27.7725 1.02319 27.9546 1.02319 28.148 1.01159C28.3528 1.01159 28.5462 1 28.751 1C28.8193 1 28.8875 1 28.9558 1C34.0757 1.0116 38.877 2.36833 43.007 4.83828C48.6161 11.4596 52.0293 20.1334 52.0293 29.5378H41.5507C41.5507 22.4874 35.9188 16.7474 29.0013 16.7474C28.0342 16.7474 27.1013 16.8633 26.2024 17.0721L26.1911 17.0605C23.2329 14.289 19.2963 12.6076 14.9956 12.6076Z" fill="#3716D6"/>
<path d="M1 29.5957H16.4506C16.4506 22.5454 22.0825 16.8054 29 16.8054C35.9175 16.8054 41.5494 22.4874 41.5494 29.5378H57C57 13.802 44.4393 1 29 1C12.9464 1 1 13.86 1 29.5957Z" fill="url(#paint0_linear)"/>
<defs>
<linearGradient id="paint0_linear" x1="56.9976" y1="15.299" x2="0.994879" y2="15.299" gradientUnits="userSpaceOnUse">
<stop stop-color="#D41100" stop-opacity="0.66"/>
<stop offset="1" stop-color="#3122DD" stop-opacity="0.66"/>
</linearGradient>
</defs>
</svg>
